REM DIRINDEX 1\2,1\3
REM DIRNAME folder01,folder02,folder03
TITLE ""
FILE "CD1Track45.mp3" MP3
  TRACK 01 AUDIO
    TITLE "0:"
    INDEX 01 00:00:00
  TRACK 02 AUDIO
    TITLE "3:cjc102_2207"
    INDEX 01 00:00:27
  TRACK 03 AUDIO
    TITLE "0:"
    INDEX 01 00:01:24
  TRACK 04 AUDIO
    TITLE "2:cjc102_2208"
    INDEX 01 00:01:32
  TRACK 05 AUDIO
    TITLE "0:"
    INDEX 01 00:02:59
  TRACK 06 AUDIO
    TITLE "3:cjc102_2209"
    INDEX 01 00:03:33
  TRACK 07 AUDIO
    TITLE "0:"
    INDEX 01 00:04:17
  TRACK 08 AUDIO
    TITLE "2:cjc102_2210"
    INDEX 01 00:04:29
  TRACK 09 AUDIO
    TITLE "0:"
    INDEX 01 00:05:44
  TRACK 10 AUDIO
    TITLE "3:cjc102_2211"
    INDEX 01 00:06:41
  TRACK 11 AUDIO
    TITLE "0:"
    INDEX 01 00:07:23
  TRACK 12 AUDIO
    TITLE "2:cjc102_2212"
    INDEX 01 00:07:25
  TRACK 13 AUDIO
    TITLE "0:"
    INDEX 01 00:08:36
  TRACK 14 AUDIO
    TITLE "3:cjc102_2213"
    INDEX 01 00:09:36
  TRACK 15 AUDIO
    TITLE "0:"
    INDEX 01 00:10:29
  TRACK 16 AUDIO
    TITLE "2:cjc102_2214"
    INDEX 01 00:10:49
  TRACK 17 AUDIO
    TITLE "0:"
    INDEX 01 00:11:62
  TRACK 18 AUDIO
    TITLE "3:cjc102_2215"
    INDEX 01 00:12:71
  TRACK 19 AUDIO
    TITLE "0:"
    INDEX 01 00:13:51
  TRACK 20 AUDIO
    TITLE "2:cjc102_2216"
    INDEX 01 00:14:21
  TRACK 21 AUDIO
    TITLE "0:"
    INDEX 01 00:15:17
  TRACK 22 AUDIO
    TITLE "2:cjc102_2217"
    INDEX 01 00:16:44
  TRACK 23 AUDIO
    TITLE "0:"
    INDEX 01 00:17:57
  TRACK 24 AUDIO
    TITLE "3:cjc102_2218"
    INDEX 01 00:18:37
  TRACK 25 AUDIO
    TITLE "0:"
    INDEX 01 00:19:32
  TRACK 26 AUDIO
    TITLE "2:cjc102_2219"
    INDEX 01 00:19:60
  TRACK 27 AUDIO
    TITLE "0:"
    INDEX 01 00:20:59
  TRACK 28 AUDIO
    TITLE "2:cjc102_2220"
    INDEX 01 00:21:64
  TRACK 29 AUDIO
    TITLE "0:"
    INDEX 01 00:23:03
  TRACK 30 AUDIO
    TITLE "3:cjc102_2221"
    INDEX 01 00:24:35
  TRACK 31 AUDIO
    TITLE "0:"
    INDEX 01 00:25:29
  TRACK 32 AUDIO
    TITLE "2:cjc102_2222"
    INDEX 01 00:25:60
  TRACK 33 AUDIO
    TITLE "0:"
    INDEX 01 00:27:08
  TRACK 34 AUDIO
    TITLE "3:cjc102_2223"
    INDEX 01 00:28:23
  TRACK 35 AUDIO
    TITLE "0:"
    INDEX 01 00:29:17
  TRACK 36 AUDIO
    TITLE "2:cjc102_2224"
    INDEX 01 00:29:44
  TRACK 37 AUDIO
    TITLE "0:"
    INDEX 01 00:30:63
  TRACK 38 AUDIO
    TITLE "3:cjc102_2225"
    INDEX 01 00:32:23
  TRACK 39 AUDIO
    TITLE "0:"
    INDEX 01 00:33:17
  TRACK 40 AUDIO
    TITLE "2:cjc102_2226"
    INDEX 01 00:33:44
  TRACK 41 AUDIO
    TITLE "0:"
    INDEX 01 00:34:63
  TRACK 42 AUDIO
    TITLE "3:cjc102_2227"
    INDEX 01 00:36:09
  TRACK 43 AUDIO
    TITLE "0:"
    INDEX 01 00:37:03
  TRACK 44 AUDIO
    TITLE "2:cjc102_2228"
    INDEX 01 00:37:28
  TRACK 45 AUDIO
    TITLE "0:"
    INDEX 01 00:38:57
  TRACK 46 AUDIO
    TITLE "3:cjc102_2229"
    INDEX 01 00:38:67
  TRACK 47 AUDIO
    TITLE "0:"
    INDEX 01 00:40:09
  TRACK 48 AUDIO
    TITLE "2:cjc102_2230"
    INDEX 01 00:40:30
  TRACK 49 AUDIO
    TITLE "0:"
    INDEX 01 00:41:32
  TRACK 50 AUDIO
    TITLE "3:cjc102_2231"
    INDEX 01 00:42:45
  TRACK 51 AUDIO
    TITLE "0:"
    INDEX 01 00:43:56
  TRACK 52 AUDIO
    TITLE "2:cjc102_2232"
    INDEX 01 00:44:01
  TRACK 53 AUDIO
    TITLE "0:"
    INDEX 01 00:45:02
  TRACK 54 AUDIO
    TITLE "3:cjc102_2233"
    INDEX 01 00:46:21
  TRACK 55 AUDIO
    TITLE "0:"
    INDEX 01 00:47:42
  TRACK 56 AUDIO
    TITLE "2:cjc102_2234"
    INDEX 01 00:47:44
  TRACK 57 AUDIO
    TITLE "0:"
    INDEX 01 00:48:63
  TRACK 58 AUDIO
    TITLE "3:cjc102_2235"
    INDEX 01 00:50:03
  TRACK 59 AUDIO
    TITLE "0:"
    INDEX 01 00:51:20
  TRACK 60 AUDIO
    TITLE "2:cjc102_2236"
    INDEX 01 00:51:24
  TRACK 61 AUDIO
    TITLE "0:"
    INDEX 01 00:52:36
  TRACK 62 AUDIO
    TITLE "3:cjc102_2237"
    INDEX 01 00:54:30
  TRACK 63 AUDIO
    TITLE "0:"
    INDEX 01 00:55:38
  TRACK 64 AUDIO
    TITLE "2:cjc102_2238"
    INDEX 01 00:55:61
  TRACK 65 AUDIO
    TITLE "0:"
    INDEX 01 00:56:72
  TRACK 66 AUDIO
    TITLE "2:cjc102_2239"
    INDEX 01 00:57:50
  TRACK 67 AUDIO
    TITLE "0:"
    INDEX 01 00:58:69
  TRACK 68 AUDIO
    TITLE "3:cjc102_2240"
    INDEX 01 01:00:43
  TRACK 69 AUDIO
    TITLE "0:"
    INDEX 01 01:01:52
  TRACK 70 AUDIO
    TITLE "2:cjc102_2241"
    INDEX 01 01:01:54
  TRACK 71 AUDIO
    TITLE "0:"
    INDEX 01 01:02:71
  TRACK 72 AUDIO
    TITLE "2:cjc102_2242"
    INDEX 01 01:03:61
  TRACK 73 AUDIO
    TITLE "0:"
    INDEX 01 01:05:05
  TRACK 74 AUDIO
    TITLE "3:cjc102_2243"
    INDEX 01 01:06:00
  TRACK 75 AUDIO
    TITLE "0:"
    INDEX 01 01:07:21
  TRACK 76 AUDIO
    TITLE "2:cjc102_2244"
    INDEX 01 01:07:25
  TRACK 77 AUDIO
    TITLE "0:"
    INDEX 01 01:08:50
  TRACK 78 AUDIO
    TITLE "2:cjc102_2245"
    INDEX 01 01:09:30
  TRACK 79 AUDIO
    TITLE "0:"
    INDEX 01 01:10:71
